<svg width="207" height="35" viewBox="0 0 207 35" fill="none" xmlns="http://www.w3.org/2000/svg">
<path d="M31.325 0H3.675C1.645 0 0 1.645 0 3.675V31.29C0 33.355 1.645 35 3.675 35H31.29C33.285 35 34.965 33.355 34.965 31.325V3.675C35 1.645 33.355 0 31.325 0ZM17.43 21.315C18.585 21.315 19.81 20.86 21 19.81L22.645 21.7C20.93 23.1 18.97 23.87 17.01 23.87C13.125 23.87 10.675 21.28 11.235 17.64C11.795 14 15.12 11.41 19.005 11.41C20.895 11.41 22.645 12.145 23.87 13.51L21.56 15.4C20.895 14.525 19.81 13.965 18.585 13.965C16.24 13.965 14.455 15.47 14.07 17.64C13.755 19.81 15.05 21.315 17.43 21.315Z" fill="#9275CA"/>
<path d="M63.152 28H57.296C55.296 28 53.808 27.6 52.832 26.8C51.872 26 51.392 24.768 51.392 23.104V15.64C51.392 13.976 51.872 12.744 52.832 11.944C53.808 11.128 55.296 10.72 57.296 10.72H63.152C63.456 10.72 63.672 10.792 63.8 10.936C63.944 11.064 64.016 11.28 64.016 11.584V14.488C64.016 14.792 63.944 15.016 63.8 15.16C63.672 15.288 63.456 15.352 63.152 15.352H58.328C57.832 15.352 57.464 15.456 57.224 15.664C56.984 15.856 56.864 16.152 56.864 16.552V22.264C56.864 22.664 56.984 22.96 57.224 23.152C57.464 23.328 57.832 23.416 58.328 23.416H63.152C63.456 23.416 63.672 23.488 63.8 23.632C63.944 23.76 64.016 23.976 64.016 24.28V27.136C64.016 27.44 63.944 27.664 63.8 27.808C63.672 27.936 63.456 28 63.152 28Z" fill="#9275CA"/>
<path d="M71.1663 28H67.5903C67.2863 28 67.0623 27.936 66.9183 27.808C66.7903 27.664 66.7263 27.44 66.7263 27.136V11.584C66.7263 11.28 66.7903 11.064 66.9183 10.936C67.0623 10.792 67.2863 10.72 67.5903 10.72H71.4543C71.7103 10.72 71.9183 10.776 72.0783 10.888C72.2543 11 72.4143 11.184 72.5583 11.44L74.7183 15.352C74.7983 15.496 74.8623 15.6 74.9103 15.664C74.9743 15.728 75.0543 15.76 75.1503 15.76H75.3663C75.4623 15.76 75.5343 15.728 75.5823 15.664C75.6463 15.6 75.7183 15.496 75.7983 15.352L77.9343 11.44C78.0783 11.184 78.2303 11 78.3903 10.888C78.5663 10.776 78.7823 10.72 79.0383 10.72H82.9263C83.2303 10.72 83.4463 10.792 83.5743 10.936C83.7183 11.064 83.7903 11.28 83.7903 11.584V27.136C83.7903 27.44 83.7183 27.664 83.5743 27.808C83.4463 27.936 83.2303 28 82.9263 28H79.2303C78.9263 28 78.7023 27.936 78.5583 27.808C78.4303 27.664 78.3663 27.44 78.3663 27.136V18.688L76.9503 21.304C76.8063 21.576 76.6303 21.776 76.4223 21.904C76.2303 22.016 75.9823 22.072 75.6783 22.072H74.7183C74.4143 22.072 74.1583 22.016 73.9503 21.904C73.7583 21.776 73.5903 21.576 73.4463 21.304L72.0303 18.688V27.136C72.0303 27.44 71.9583 27.664 71.8143 27.808C71.6863 27.936 71.4703 28 71.1663 28Z" fill="#9275CA"/>
<path d="M95.1095 28H87.5255C87.2215 28 86.9975 27.936 86.8535 27.808C86.7255 27.664 86.6615 27.44 86.6615 27.136V24.328C86.6615 24.024 86.7255 23.808 86.8535 23.68C86.9975 23.536 87.2215 23.464 87.5255 23.464H93.9815C94.1895 23.464 94.3415 23.4 94.4375 23.272C94.5495 23.128 94.6055 22.96 94.6055 22.768C94.6055 22.496 94.5495 22.296 94.4375 22.168C94.3415 22.04 94.1895 21.968 93.9815 21.952L90.3815 21.448C89.2615 21.288 88.3575 20.92 87.6695 20.344C86.9975 19.768 86.6615 18.808 86.6615 17.464V14.944C86.6615 13.584 87.1015 12.544 87.9815 11.824C88.8615 11.088 90.0775 10.72 91.6295 10.72H98.3495C98.6535 10.72 98.8695 10.792 98.9975 10.936C99.1415 11.064 99.2135 11.28 99.2135 11.584V14.44C99.2135 14.744 99.1415 14.968 98.9975 15.112C98.8695 15.24 98.6535 15.304 98.3495 15.304H92.7575C92.5495 15.304 92.3895 15.376 92.2775 15.52C92.1655 15.648 92.1095 15.816 92.1095 16.024C92.1095 16.232 92.1655 16.408 92.2775 16.552C92.3895 16.696 92.5495 16.776 92.7575 16.792L96.3335 17.272C97.4535 17.432 98.3575 17.8 99.0455 18.376C99.7335 18.952 100.077 19.912 100.077 21.256V23.776C100.077 25.136 99.6295 26.184 98.7335 26.92C97.8535 27.64 96.6455 28 95.1095 28Z" fill="#9275CA"/>
<path d="M113.521 28H109.801C109.497 28 109.273 27.936 109.129 27.808C109.001 27.664 108.937 27.44 108.937 27.136V11.584C108.937 11.28 109.001 11.064 109.129 10.936C109.273 10.792 109.497 10.72 109.801 10.72H117.145C119.321 10.72 120.809 11.152 121.609 12.016C122.409 12.88 122.809 14.008 122.809 15.4V18.472C122.809 19.864 122.409 20.992 121.609 21.856C120.809 22.72 119.321 23.152 117.145 23.152H114.385V27.136C114.385 27.44 114.313 27.664 114.169 27.808C114.041 27.936 113.825 28 113.521 28ZM114.337 15.208V18.832H116.497C116.961 18.832 117.265 18.712 117.409 18.472C117.553 18.232 117.625 17.96 117.625 17.656V16.384C117.625 16.08 117.553 15.808 117.409 15.568C117.265 15.328 116.961 15.208 116.497 15.208H114.337Z" fill="#9275CA"/>
<path d="M139.937 23.464C139.937 24.2 139.825 24.872 139.601 25.48C139.393 26.072 139.009 26.584 138.449 27.016C137.905 27.432 137.145 27.76 136.169 28C135.209 28.24 133.985 28.36 132.497 28.36C131.009 28.36 129.777 28.24 128.801 28C127.825 27.76 127.057 27.432 126.497 27.016C125.953 26.584 125.569 26.072 125.345 25.48C125.137 24.872 125.033 24.2 125.033 23.464V15.28C125.033 14.544 125.137 13.88 125.345 13.288C125.569 12.68 125.953 12.16 126.497 11.728C127.057 11.296 127.825 10.96 128.801 10.72C129.777 10.48 131.009 10.36 132.497 10.36C133.985 10.36 135.209 10.48 136.169 10.72C137.145 10.96 137.905 11.296 138.449 11.728C139.009 12.16 139.393 12.68 139.601 13.288C139.825 13.88 139.937 14.544 139.937 15.28V23.464ZM130.481 22.6C130.481 22.92 130.601 23.192 130.841 23.416C131.081 23.624 131.633 23.728 132.497 23.728C133.361 23.728 133.913 23.624 134.153 23.416C134.393 23.192 134.513 22.92 134.513 22.6V16.144C134.513 15.84 134.393 15.584 134.153 15.376C133.913 15.152 133.361 15.04 132.497 15.04C131.633 15.04 131.081 15.152 130.841 15.376C130.601 15.584 130.481 15.84 130.481 16.144V22.6Z" fill="#9275CA"/>
<path d="M148.416 15.04V18.112H150.216C150.632 18.112 150.912 18.008 151.056 17.8C151.2 17.576 151.272 17.304 151.272 16.984V16.168C151.272 15.848 151.2 15.584 151.056 15.376C150.912 15.152 150.632 15.04 150.216 15.04H148.416ZM147.552 28H143.856C143.552 28 143.328 27.936 143.184 27.808C143.056 27.664 142.992 27.44 142.992 27.136V11.584C142.992 11.28 143.056 11.064 143.184 10.936C143.328 10.792 143.552 10.72 143.856 10.72H151.848C153.64 10.72 154.872 11.096 155.544 11.848C156.232 12.584 156.576 13.544 156.576 14.728V15.832C156.576 16.504 156.472 17.08 156.264 17.56C156.072 18.024 155.728 18.36 155.232 18.568C156.096 18.664 156.792 19.016 157.32 19.624C157.864 20.232 158.136 21.04 158.136 22.048V27.136C158.136 27.44 158.064 27.664 157.92 27.808C157.792 27.936 157.576 28 157.272 28H153.552C153.248 28 153.024 27.936 152.88 27.808C152.752 27.664 152.688 27.44 152.688 27.136V23.464C152.688 23.112 152.616 22.856 152.472 22.696C152.344 22.52 152.112 22.432 151.776 22.432H148.416V27.136C148.416 27.44 148.344 27.664 148.2 27.808C148.072 27.936 147.856 28 147.552 28Z" fill="#9275CA"/>
<path d="M168.261 28H164.373C164.069 28 163.845 27.936 163.701 27.808C163.573 27.664 163.509 27.44 163.509 27.136V15.352H159.981C159.677 15.352 159.453 15.288 159.309 15.16C159.181 15.016 159.117 14.792 159.117 14.488V11.584C159.117 11.28 159.181 11.064 159.309 10.936C159.453 10.792 159.677 10.72 159.981 10.72H172.653C172.957 10.72 173.173 10.792 173.301 10.936C173.445 11.064 173.517 11.28 173.517 11.584V14.488C173.517 14.792 173.445 15.016 173.301 15.16C173.173 15.288 172.957 15.352 172.653 15.352H169.125V27.136C169.125 27.44 169.053 27.664 168.909 27.808C168.781 27.936 168.565 28 168.261 28Z" fill="#9275CA"/>
<path d="M181.154 15.76L180.026 19.408H183.794L182.666 15.76C182.602 15.616 182.53 15.512 182.45 15.448C182.386 15.384 182.306 15.352 182.21 15.352H181.61C181.514 15.352 181.426 15.384 181.346 15.448C181.282 15.512 181.218 15.616 181.154 15.76ZM179.786 27.136C179.786 27.44 179.714 27.664 179.57 27.808C179.442 27.936 179.226 28 178.922 28H175.394C175.09 28 174.866 27.936 174.722 27.808C174.594 27.664 174.53 27.44 174.53 27.136V20.8C174.53 20.32 174.602 19.768 174.746 19.144C174.906 18.52 175.146 17.792 175.466 16.96L177.554 11.512C177.65 11.24 177.794 11.04 177.986 10.912C178.194 10.784 178.458 10.72 178.778 10.72H185.234C185.538 10.72 185.786 10.784 185.978 10.912C186.186 11.04 186.338 11.24 186.434 11.512L188.522 16.96C188.842 17.792 189.074 18.52 189.218 19.144C189.378 19.768 189.458 20.32 189.458 20.8V27.136C189.458 27.44 189.386 27.664 189.242 27.808C189.114 27.936 188.898 28 188.594 28H184.97C184.65 28 184.41 27.936 184.25 27.808C184.106 27.664 184.034 27.44 184.034 27.136V23.776H179.786V27.136Z" fill="#9275CA"/>
<path d="M205.502 28H193.286C192.982 28 192.758 27.936 192.614 27.808C192.486 27.664 192.422 27.44 192.422 27.136V11.584C192.422 11.28 192.486 11.064 192.614 10.936C192.758 10.792 192.982 10.72 193.286 10.72H197.006C197.31 10.72 197.526 10.792 197.654 10.936C197.798 11.064 197.87 11.28 197.87 11.584V23.464H201.158V19.576C201.158 19.272 201.222 19.056 201.35 18.928C201.494 18.784 201.718 18.712 202.022 18.712H205.502C205.806 18.712 206.022 18.784 206.15 18.928C206.294 19.056 206.366 19.272 206.366 19.576V27.136C206.366 27.44 206.294 27.664 206.15 27.808C206.022 27.936 205.806 28 205.502 28Z" fill="#9275CA"/>
</svg>
